<svg
    xmlns="http://www.w3.org/2000/svg"
    height="108"
    width="108"
    viewBox="0 0 108 108">

    <path
        fill="#ffffff"
        d="M54,18c19.9,0,36,16.1,36,36S73.9,90,54,90S18,73.9,18,54S34.1,18,54,18z">
    </path>

    <g id="Debug">

        <path
            fill="#f4900c"
            d="M52.5,57.8c-11.7-3.2-18.7-11.9-17.8-22.2c0-0.1,0-0.2,0-0.3C29.9,40,27,46.6,27,54C27,68,38.4,80.1,51.7,80.5c3,0.1,5.8-0.7,8.1-2.6c2.3-1.9,3.7-4.7,4-7.7C64.4,62.3,57,59,52.5,57.8L52.5,57.8z">
        </path>

        <path
            fill="#77b255"
            d="M80.3,54C80.3,40,69.2,28,56,27.4c-2.6-0.1-5.2,0.6-7.2,2.3c-2,1.7-3.3,4.1-3.5,6.8c-0.5,5.9,4.8,9.6,10,11c12.6,3.4,19.8,12.3,19.1,23.2C78.1,66.1,80.3,60.3,80.3,54L80.3,54z">
        </path>

    </g>

    <g id="Release">

        <path
            fill="#4895d9"
            d="M52.5,57.8c-11.7-3.2-18.7-11.9-17.8-22.2c0-0.1,0-0.2,0-0.3C29.9,40,27,46.6,27,54C27,68,38.4,80.1,51.7,80.5c3,0.1,5.8-0.7,8.1-2.6c2.3-1.9,3.7-4.7,4-7.7C64.4,62.3,57,59,52.5,57.8L52.5,57.8z">
        </path>

        <path
            fill="#4895d9"
            d="M80.3,54C80.3,40,69.2,28,56,27.4c-2.6-0.1-5.2,0.6-7.2,2.3c-2,1.7-3.3,4.1-3.5,6.8c-0.5,5.9,4.8,9.6,10,11c12.6,3.4,19.8,12.3,19.1,23.2C78.1,66.1,80.3,60.3,80.3,54L80.3,54z">
        </path>

    </g>

</svg>
